<?xml version="1.0" encoding="UTF-8"?>
<svg xmlns="http://www.w3.org/2000/svg" version="1.1" width="100" height="100" viewBox="0 0 100 100"><rect x="0" y="0" width="100" height="100" fill="#ffffff"/><g transform="scale(4)"><g transform="translate(0,0)"><path fill-rule="evenodd" d="M9 0L9 1L8 1L8 2L9 2L9 3L8 3L8 4L10 4L10 7L11 7L11 4L12 4L12 5L13 5L13 6L12 6L12 9L14 9L14 11L17 11L17 12L15 12L15 13L14 13L14 12L13 12L13 13L12 13L12 11L13 11L13 10L11 10L11 11L10 11L10 9L11 9L11 8L6 8L6 9L7 9L7 10L5 10L5 8L0 8L0 9L1 9L1 10L0 10L0 11L1 11L1 12L2 12L2 11L3 11L3 10L4 10L4 11L7 11L7 12L4 12L4 13L0 13L0 17L1 17L1 14L4 14L4 16L3 16L3 17L5 17L5 13L7 13L7 14L6 14L6 15L8 15L8 13L7 13L7 12L8 12L8 9L9 9L9 13L10 13L10 14L9 14L9 16L10 16L10 18L9 18L9 17L8 17L8 16L6 16L6 17L8 17L8 19L9 19L9 20L8 20L8 25L11 25L11 23L9 23L9 22L10 22L10 21L12 21L12 22L13 22L13 23L12 23L12 25L13 25L13 24L14 24L14 25L16 25L16 24L17 24L17 25L18 25L18 24L19 24L19 23L18 23L18 22L21 22L21 23L20 23L20 24L22 24L22 25L25 25L25 20L22 20L22 19L21 19L21 18L22 18L22 17L25 17L25 16L24 16L24 15L25 15L25 14L23 14L23 13L25 13L25 10L23 10L23 9L24 9L24 8L23 8L23 9L22 9L22 8L21 8L21 9L22 9L22 11L21 11L21 10L18 10L18 8L17 8L17 6L16 6L16 5L15 5L15 4L17 4L17 2L16 2L16 1L15 1L15 0L14 0L14 3L13 3L13 4L12 4L12 2L13 2L13 1L11 1L11 2L10 2L10 0ZM15 2L15 3L14 3L14 4L13 4L13 5L14 5L14 4L15 4L15 3L16 3L16 2ZM10 3L10 4L11 4L11 3ZM8 5L8 7L9 7L9 5ZM13 6L13 8L14 8L14 9L15 9L15 10L17 10L17 8L16 8L16 6L15 6L15 7L14 7L14 6ZM19 8L19 9L20 9L20 8ZM20 11L20 12L21 12L21 13L18 13L18 12L17 12L17 13L15 13L15 14L16 14L16 15L17 15L17 16L19 16L19 15L20 15L20 16L21 16L21 17L22 17L22 16L23 16L23 15L22 15L22 16L21 16L21 15L20 15L20 14L21 14L21 13L22 13L22 12L23 12L23 11L22 11L22 12L21 12L21 11ZM10 12L10 13L11 13L11 14L10 14L10 15L11 15L11 18L14 18L14 17L16 17L16 16L14 16L14 13L13 13L13 14L12 14L12 13L11 13L11 12ZM17 13L17 15L19 15L19 14L18 14L18 13ZM12 15L12 17L14 17L14 16L13 16L13 15ZM17 17L17 20L20 20L20 17ZM15 18L15 19L12 19L12 21L14 21L14 22L15 22L15 23L14 23L14 24L16 24L16 23L17 23L17 22L18 22L18 21L16 21L16 22L15 22L15 19L16 19L16 18ZM18 18L18 19L19 19L19 18ZM23 18L23 19L25 19L25 18ZM10 19L10 20L11 20L11 19ZM21 21L21 22L22 22L22 21ZM23 22L23 23L22 23L22 24L24 24L24 22ZM0 0L0 7L7 7L7 0ZM1 1L1 6L6 6L6 1ZM2 2L2 5L5 5L5 2ZM18 0L18 7L25 7L25 0ZM19 1L19 6L24 6L24 1ZM20 2L20 5L23 5L23 2ZM0 18L0 25L7 25L7 18ZM1 19L1 24L6 24L6 19ZM2 20L2 23L5 23L5 20Z" fill="#000000"/></g></g></svg>
